<?xml version="1.0" standalone="no"?>
<!DOCTYPE svg PUBLIC "-//W3C//DTD SVG 20010904//EN"
 "http://www.w3.org/TR/2001/REC-SVG-20010904/DTD/svg10.dtd">
<svg version="1.0" xmlns="http://www.w3.org/2000/svg"
 width="1024.000000pt" height="1024.000000pt" viewBox="0 0 1024.000000 1024.000000"
 preserveAspectRatio="xMidYMid meet">
<metadata>
Created by potrace 1.14, written by Peter Selinger 2001-2017
</metadata>
<g transform="translate(0.000000,1024.000000) scale(0.100000,-0.100000)"
fill="#000000" stroke="none">
<path d="M3257 8590 c-60 -4 -72 -9 -93 -33 -23 -27 -24 -33 -24 -188 l0 -159
-612 0 c-660 0 -687 -2 -799 -53 -78 -36 -171 -107 -220 -169 -65 -82 -116
-201 -128 -300 -7 -56 -10 -969 -7 -2798 4 -3038 -4 -2756 77 -2911 84 -161
239 -278 424 -320 36 -8 669 -11 2336 -12 l2286 0 54 -48 c224 -201 550 -354
834 -394 169 -23 405 -23 510 0 11 3 31 7 45 9 139 23 368 107 502 184 77 45
186 117 198 131 3 3 21 18 40 32 64 48 197 186 254 264 17 22 33 42 36 45 12
10 87 136 123 205 34 67 43 88 80 180 93 233 128 604 81 840 -4 20 -10 50 -19
95 -11 58 -57 197 -92 278 -62 146 -148 286 -246 404 l-40 47 2 1203 c1 662 3
1514 4 1893 1 648 0 694 -18 750 -70 227 -236 385 -450 430 -57 12 -183 15
-682 15 l-613 0 0 149 c0 82 -4 161 -10 175 -18 47 -51 59 -163 59 -56 -1
-115 -6 -130 -12 -39 -15 -59 -67 -57 -155 1 -39 1 -104 1 -143 l-1 -73 -720
0 -720 0 0 149 c0 82 -4 161 -10 175 -18 47 -50 59 -168 59 -173 0 -182 -12
-182 -233 l0 -150 -720 0 -720 0 -1 118 c0 64 0 136 1 160 1 35 -4 47 -28 72
-17 17 -41 30 -54 31 -13 0 -39 1 -58 2 -19 1 -66 0 -103 -3z"/>
</g>
</svg>
